<?xml version="1.0" encoding="UTF-8"?>
<svg version="1.1" xmlns="http://www.w3.org/2000/svg" width="109" height="77">
<path d="M0 0 C1.34332728 -0.29044914 2.68225804 -0.60955794 4 -1 C5.65079442 0.65079442 5.22549447 2.63736179 5.31640625 4.91015625 C5.35830078 5.89951172 5.40019531 6.88886719 5.44335938 7.90820312 C5.48267578 8.94912109 5.52199219 9.99003906 5.5625 11.0625 C5.60568359 12.10728516 5.64886719 13.15207031 5.69335938 14.22851562 C5.79981225 16.81886884 5.9018276 19.40932186 6 22 C6.46108154 21.58355225 6.92216309 21.16710449 7.3972168 20.73803711 C8.01250244 20.1941333 8.62778809 19.65022949 9.26171875 19.08984375 C9.86717529 18.549646 10.47263184 18.00944824 11.09643555 17.45288086 C13.98361333 15.24926473 16.43797585 14.6285925 20 14 C20.99 14.495 20.99 14.495 22 15 C21.63363494 17.48604861 21.42684557 18.6699755 19.3984375 20.23828125 C18.73070313 20.59277344 18.06296875 20.94726562 17.375 21.3125 C12.85366903 23.71613247 8.911091 26.76355369 6 31 C4.9711736 34.72007258 4.84789029 38.34225685 4.75 42.1875 C4.63580176 44.24258228 4.51477303 46.29729705 4.38671875 48.3515625 C4.32919434 49.32899414 4.27166992 50.30642578 4.21240234 51.31347656 C3.55100487 59.67901426 1.19447761 67.50406855 -3.6875 74.375 C-6.6110032 76.4293536 -8.5774701 76.58758113 -12.09375 76.37109375 C-14 76 -14 76 -16.5 74.5625 C-19.21451904 69.92519663 -18.64490479 65.51474706 -17.33984375 60.42578125 C-15.09039275 53.75533131 -11.81883688 47.67649443 -8.390625 41.5546875 C-6.9203168 39.3383913 -6.9203168 39.3383913 -7 38 C-7.680625 38.495 -8.36125 38.99 -9.0625 39.5 C-12.67208369 41.34319167 -14.99449813 41.44505576 -19 41 C-21.61593153 39.16884793 -21.96989455 38.09031634 -23 35 C-23.09351969 33.3771583 -23.12994081 31.75052659 -23.125 30.125 C-23.12886719 28.86042969 -23.12886719 28.86042969 -23.1328125 27.5703125 C-23 25 -23 25 -22 20 C-25.3 21.65 -28.6 23.3 -32 25 C-31.34 26.32 -30.68 27.64 -30 29 C-29.0625 32.375 -29.0625 32.375 -29 36 C-32.81926051 42.28329955 -38.28351509 45.08840936 -45.3125 46.8125 C-48 47 -48 47 -51 46 C-52.07696281 41.60240186 -52.2530182 39.54352057 -50.3125 35.375 C-48.40310979 32.42775308 -46.27224298 29.67800066 -44 27 C-48.2814105 22.0190141 -48.2814105 22.0190141 -54.13671875 19.875 C-58.17806447 20.86031858 -61.51522098 22.74514299 -65 25 C-65.66 25 -66.32 25 -67 25 C-67 25.66 -67 26.32 -67 27 C-66.0409375 27.309375 -66.0409375 27.309375 -65.0625 27.625 C-63 29 -63 29 -62 31.75 C-62 36.18347648 -63.04764707 37.69617648 -66 41 C-70.55865518 44.21177979 -75.31920119 46.8678884 -81 47 C-83.375 46.0625 -83.375 46.0625 -85 45 C-85.78045417 38.8864423 -84.04122881 35.87670033 -80.5078125 30.91796875 C-79 29 -79 29 -77 27 C-77.63808594 26.45730469 -78.27617188 25.91460938 -78.93359375 25.35546875 C-79.75988281 24.64003906 -80.58617188 23.92460937 -81.4375 23.1875 C-82.26121094 22.47980469 -83.08492188 21.77210937 -83.93359375 21.04296875 C-86.68414991 18.32360982 -86.96132393 16.51245788 -87.25 12.6875 C-86.92764971 7.93283319 -85.76588171 4.61616565 -82.203125 1.35546875 C-78.3698797 -1.00292862 -74.34950143 -0.65133965 -70 0 C-67.01666994 1.96463199 -66.26689227 3.21838694 -65.125 6.5625 C-65 9 -65 9 -67 12 C-68.9375 11.25 -68.9375 11.25 -71 10 C-71.75 7.875 -71.75 7.875 -72 6 C-73.72476911 5.04497842 -73.72476911 5.04497842 -76 5 C-78.97791641 6.89385913 -78.97791641 6.89385913 -81 10 C-81.49082791 13.56709633 -81.49082791 13.56709633 -80 17 C-77.85934209 19.02879455 -75.56081589 20.54909387 -73 22 C-70.84659948 20.93573277 -68.71444213 19.84677383 -66.59765625 18.7109375 C-65.76105469 18.27007813 -64.92445312 17.82921875 -64.0625 17.375 C-63.22847656 16.92898437 -62.39445312 16.48296875 -61.53515625 16.0234375 C-58.819828 14.92726492 -56.8985447 14.80296118 -54 15 C-53.896875 13.783125 -53.79375 12.56625 -53.6875 11.3125 C-53.21780277 7.57476849 -52.32634716 5.04214629 -50 2 C-45.75234275 -0.8317715 -41.9847902 -0.76079469 -37 0 C-33.8125 2.0625 -33.8125 2.0625 -32 5 C-32.1875 8.8125 -32.1875 8.8125 -33 12 C-34.875 11.8125 -34.875 11.8125 -37 11 C-37.70211894 9.34795544 -38.36971413 7.68076231 -39 6 C-41.95921531 4.65300299 -41.95921531 4.65300299 -44.625 6.0625 C-47.25 7.83333333 -47.25 7.83333333 -47.875 10.9375 C-48.07035865 14.60220698 -48.07035865 14.60220698 -47 18 C-45.23470405 19.21690533 -45.23470405 19.21690533 -43 20 C-42.21625 20.40476562 -41.4325 20.80953125 -40.625 21.2265625 C-38.02876466 22.31262198 -38.02876466 22.31262198 -35.859375 20.953125 C-35.16328125 20.39109375 -34.4671875 19.8290625 -33.75 19.25 C-30.48479802 16.81742453 -28.29074148 15.66565441 -24.25 15.1875 C-21.33134122 14.70105687 -20.33723446 14.43559451 -18.5 12.0625 C-17.66765891 10.48105194 -16.87159187 8.87996925 -16.11328125 7.26171875 C-14.30081683 3.57955419 -11.82216412 0.82291283 -8.0625 -0.875 C-5.28785937 -1.04316004 -2.73610878 -0.45601813 0 0 Z M-11 8 C-16.09892597 16.22219972 -18.4999683 24.33394613 -18 34 C-17.67 34.66 -17.34 35.32 -17 36 C-14.40712178 35.92373888 -12.58665963 35.47027139 -10.54296875 33.83203125 C-5.10124952 28.01700147 -0.46558026 19.74202114 0.31640625 11.77734375 C-0.13094036 7.85063465 -2.03569541 6.4582038 -5 4 C-7.54057859 4 -9.32980244 6.40572051 -11 8 Z M-1 28 C0 30 0 30 0 30 Z M-72 30 C-73.4302165 31.44744802 -74.79721162 32.9580522 -76.125 34.5 C-76.84945312 35.3353125 -77.57390625 36.170625 -78.3203125 37.03125 C-78.87460938 37.6809375 -79.42890625 38.330625 -80 39 C-79.67 39.99 -79.34 40.98 -79 42 C-73.82620318 39.75216109 -70.22302975 37.83454463 -67 33 C-68.37485532 31.45833358 -68.37485532 31.45833358 -70 30 C-70.66 30 -71.32 30 -72 30 Z M-39 30 C-40.15454162 31.24196122 -41.29832562 32.49392845 -42.4375 33.75 C-43.07558594 34.44609375 -43.71367188 35.1421875 -44.37109375 35.859375 C-45.99081325 37.98792725 -46.58267256 39.39023405 -47 42 C-41.26928904 40.15451681 -37.93963055 38.55519783 -34 34 C-34.33 33.01 -34.66 32.02 -35 31 C-37.01508358 30.26676204 -37.01508358 30.26676204 -39 30 Z M-2 30 C-2 33 -2 33 -2 33 Z M-4 33 C-4 36 -4 36 -4 36 Z M-1 39 C-10.23905955 53.49380639 -10.23905955 53.49380639 -13 70 C-11.35 70.33 -9.7 70.66 -8 71 C-0.71372161 61.70371377 -0.4440619 50.34654717 0 39 C-0.33 39 -0.66 39 -1 39 Z " fill="#000000" transform="translate(87,1)"/>
</svg>
